<svg width="680" height="120" viewBox="0 0 680 120" xmlns="http://www.w3.org/2000/svg">
  <defs>
    <linearGradient id="bgG" x1="0%" y1="0%" x2="100%" y2="100%">
      <stop offset="0%" stop-color="#1a3a6a"/><stop offset="100%" stop-color="#0c1e3e"/>
    </linearGradient>
    <linearGradient id="bodyG" x1="0%" y1="0%" x2="100%" y2="100%">
      <stop offset="0%" stop-color="#a8e8f8"/><stop offset="35%" stop-color="#48bce0"/>
      <stop offset="75%" stop-color="#1e7ab8"/><stop offset="100%" stop-color="#0c4a88"/>
    </linearGradient>
    <linearGradient id="stG" x1="0%" y1="0%" x2="100%" y2="100%">
      <stop offset="0%" stop-color="#c0f0ff"/><stop offset="100%" stop-color="#1878b8"/>
    </linearGradient>
    <linearGradient id="shG" x1="0%" y1="0%" x2="100%" y2="0%">
      <stop offset="0%" stop-color="#d0f4ff" stop-opacity="0.55"/><stop offset="100%" stop-color="#d0f4ff" stop-opacity="0"/>
    </linearGradient>
    <linearGradient id="arrG" x1="0%" y1="0%" x2="0%" y2="100%">
      <stop offset="0%" stop-color="#ffffff"/><stop offset="100%" stop-color="#90d8f4"/>
    </linearGradient>
    <radialGradient id="igR" cx="42%" cy="38%" r="52%">
      <stop offset="0%" stop-color="#2a6aaa" stop-opacity="0.45"/><stop offset="100%" stop-opacity="0"/>
    </radialGradient>
    <filter id="gl"><feGaussianBlur stdDeviation="2.5" result="b"/><feMerge><feMergeNode in="b"/><feMergeNode in="SourceGraphic"/></feMerge></filter>
    <filter id="ag"><feGaussianBlur stdDeviation="2" result="b"/><feMerge><feMergeNode in="b"/><feMergeNode in="SourceGraphic"/></feMerge></filter>
  </defs>
  <rect x="0" y="10" width="100" height="100" rx="18" fill="url(#bgG)"/>
  <rect x="0" y="10" width="100" height="100" rx="18" fill="url(#igR)"/>
  <path d="M 16 31 C 17 49 27 64 43 69 L 57 69 C 73 64 83 49 84 31 Z" fill="url(#bodyG)" opacity="0.88"/>
  <ellipse cx="50" cy="31" rx="34" ry="6.5" fill="url(#bodyG)" opacity="0.92"/>
  <path d="M 21 35 C 23 51 31 64 45 69 L 55 69 C 69 64 77 51 79 35 Q 65 41 50 42 Q 35 41 21 35 Z" fill="#071830" opacity="0.38"/>
  <path d="M 16 31 C 17 49 27 64 43 69 L 40 68 C 24 62 15 48 14 31 Z" fill="url(#shG)"/>
  <ellipse cx="50" cy="69" rx="7" ry="3.5" fill="#071830" opacity="0.75"/>
  <path d="M 43 69 L 25 95 L 75 95 L 57 69 Z" fill="url(#bodyG)" opacity="0.88"/>
  <ellipse cx="50" cy="95" rx="25" ry="6" fill="url(#bodyG)" opacity="0.92"/>
  <path d="M 43 69 L 25 95 L 31 95 L 48 69 Z" fill="url(#shG)" opacity="0.8"/>
  <path d="M 16 31 C 17 49 27 64 43 69" fill="none" stroke="url(#stG)" stroke-width="1.4" filter="url(#gl)"/>
  <path d="M 84 31 C 83 49 73 64 57 69" fill="none" stroke="url(#stG)" stroke-width="1.4" filter="url(#gl)"/>
  <path d="M 43 69 L 25 95" fill="none" stroke="url(#stG)" stroke-width="1.4" filter="url(#gl)"/>
  <path d="M 57 69 L 75 95" fill="none" stroke="url(#stG)" stroke-width="1.4" filter="url(#gl)"/>
  <ellipse cx="50" cy="31" rx="34" ry="6.5" fill="none" stroke="url(#stG)" stroke-width="1.3" filter="url(#gl)"/>
  <ellipse cx="50" cy="95" rx="25" ry="6" fill="none" stroke="url(#stG)" stroke-width="1.2" filter="url(#gl)"/>
  <rect x="47.5" y="36" width="5.5" height="30" rx="1.5" fill="url(#arrG)" filter="url(#ag)"/>
  <polygon points="50,18 38,37 62,37" fill="url(#arrG)" filter="url(#ag)"/>
  <text x="118" y="58" font-family="'Inter','Helvetica Neue',Arial,sans-serif" font-size="38" font-weight="400" letter-spacing="-0.5" fill="#e2eaf5">Lead</text>
  <text x="118" y="100" font-family="'Inter','Helvetica Neue',Arial,sans-serif" font-size="44" font-weight="800" letter-spacing="-1.5" fill="#ffffff">Waterfall</text>
</svg>
